<svg width="28" height="28" viewBox="0 0 28 28" fill="none" xmlns="http://www.w3.org/2000/svg">
<path fill-rule="evenodd" clip-rule="evenodd" d="M17 15.5C17.3674 15.5 17.722 15.6349 17.9966 15.8791C18.2711 16.1232 18.4465 16.4596 18.4895 16.8245L18.5 17V26C18.4996 26.3823 18.3532 26.75 18.0907 27.0281C17.8283 27.3061 17.4696 27.4734 17.0879 27.4958C16.7062 27.5182 16.3304 27.394 16.0373 27.1486C15.7441 26.9032 15.5557 26.5551 15.5105 26.1755L15.5 26V17C15.5 16.6022 15.658 16.2206 15.9393 15.9393C16.2206 15.658 16.6022 15.5 17 15.5ZM21.5 22.25C21.8978 22.25 22.2794 22.408 22.5607 22.6893C22.842 22.9706 23 23.3522 23 23.75V26C23 26.3978 22.842 26.7794 22.5607 27.0607C22.2794 27.342 21.8978 27.5 21.5 27.5C21.1022 27.5 20.7206 27.342 20.4393 27.0607C20.158 26.7794 20 26.3978 20 26V23.75C20 23.3522 20.158 22.9706 20.4393 22.6893C20.7206 22.408 21.1022 22.25 21.5 22.25ZM26 15.5C26.3674 15.5 26.722 15.6349 26.9966 15.8791C27.2711 16.1232 27.4465 16.4596 27.4895 16.8245L27.5 17V26C27.4996 26.3823 27.3532 26.75 27.0907 27.0281C26.8283 27.3061 26.4696 27.4734 26.0879 27.4958C25.7062 27.5182 25.3304 27.394 25.0373 27.1486C24.7441 26.9032 24.5557 26.5551 24.5105 26.1755L24.5 26V17C24.5 16.6022 24.658 16.2206 24.9393 15.9393C25.2206 15.658 25.6022 15.5 26 15.5ZM9.5 15.5C10.2956 15.5 11.0587 15.8161 11.6213 16.3787C12.1839 16.9413 12.5 17.7044 12.5 18.5V24.5C12.5 25.2956 12.1839 26.0587 11.6213 26.6213C11.0587 27.1839 10.2956 27.5 9.5 27.5H3.5C2.70435 27.5 1.94129 27.1839 1.37868 26.6213C0.81607 26.0587 0.5 25.2956 0.5 24.5V18.5C0.5 17.7044 0.81607 16.9413 1.37868 16.3787C1.94129 15.8161 2.70435 15.5 3.5 15.5H9.5ZM9.5 18.5H3.5V24.5H9.5V18.5ZM21.5 15.5C21.8674 15.5 22.222 15.6349 22.4966 15.8791C22.7711 16.1232 22.9465 16.4596 22.9895 16.8245L23 17V19.25C22.9996 19.6323 22.8532 20 22.5907 20.2781C22.3283 20.5561 21.9696 20.7234 21.5879 20.7458C21.2062 20.7682 20.8304 20.644 20.5373 20.3986C20.2441 20.1532 20.0557 19.8051 20.0105 19.4255L20 19.25V17C20 16.6022 20.158 16.2206 20.4393 15.9393C20.7206 15.658 21.1022 15.5 21.5 15.5ZM9.5 0.5C10.2956 0.5 11.0587 0.81607 11.6213 1.37868C12.1839 1.94129 12.5 2.70435 12.5 3.5V9.5C12.5 10.2956 12.1839 11.0587 11.6213 11.6213C11.0587 12.1839 10.2956 12.5 9.5 12.5H3.5C2.70435 12.5 1.94129 12.1839 1.37868 11.6213C0.81607 11.0587 0.5 10.2956 0.5 9.5V3.5C0.5 2.70435 0.81607 1.94129 1.37868 1.37868C1.94129 0.81607 2.70435 0.5 3.5 0.5H9.5ZM24.5 0.5C25.2956 0.5 26.0587 0.81607 26.6213 1.37868C27.1839 1.94129 27.5 2.70435 27.5 3.5V9.5C27.5 10.2956 27.1839 11.0587 26.6213 11.6213C26.0587 12.1839 25.2956 12.5 24.5 12.5H18.5C17.7044 12.5 16.9413 12.1839 16.3787 11.6213C15.8161 11.0587 15.5 10.2956 15.5 9.5V3.5C15.5 2.70435 15.8161 1.94129 16.3787 1.37868C16.9413 0.81607 17.7044 0.5 18.5 0.5H24.5ZM9.5 3.5H3.5V9.5H9.5V3.5ZM24.5 3.5H18.5V9.5H24.5V3.5Z" fill="#47484A"/>
</svg>
